<?xml version="1.0" encoding="utf-8"?>
<!-- Generator: Adobe Illustrator 26.5.3, SVG Export Plug-In . SVG Version: 6.00 Build 0)  -->
<svg version="1.1" id="Ebene_1" xmlns="http://www.w3.org/2000/svg" xmlns:xlink="http://www.w3.org/1999/xlink" x="0px" y="0px"
	 width="216.8px" height="127px" viewBox="0 0 216.8 127" style="enable-background:new 0 0 216.8 127;" xml:space="preserve">
<style type="text/css">
	.Grün_x0020_bogenförmig{fill:url(#SVGID_1_);stroke:#FFFFFF;stroke-width:0.25;stroke-miterlimit:1;}
	.st0{fill:#FFFFFF;}
</style>
<linearGradient id="SVGID_1_" gradientUnits="userSpaceOnUse" x1="3.25" y1="491.7803" x2="3.9571" y2="491.0732">
	<stop  offset="0" style="stop-color:#1DA238"/>
	<stop  offset="0.9831" style="stop-color:#24391D"/>
</linearGradient>
<g>
	<g>
		<path class="st0" d="M97.3,33.9c0-2.4,0-13,7.5-13c6.3,0,7.1,8.1,7.1,12.1c0,6.3-1.3,13.6-7.5,13.6C97.7,46.7,97.3,37.3,97.3,33.9
			 M82.5,12.9c0.1,1.8,0.2,2.3,0.3,6.9v44.7h14.7V50.2c1.7,2.1,4.9,5.9,11.8,5.9c8.9,0,17.6-6.4,17.6-22.9
			c0-17.4-10.4-21.4-16.9-21.4c-8.2,0-11.5,5-12.9,7.1l-0.2-6H82.5z M48.6,34c0-6.3,1.3-13.5,7.8-13.5c5.9,0,7.5,6.2,7.5,13.5
			c0,5.9-1.3,13.4-7.7,13.4c-1.3,0-4-0.2-5.7-3.4C48.8,40.9,48.6,36.8,48.6,34 M33.3,33.9c0,5.1,1.1,11.5,5.6,16.1
			c3.8,4,9.5,6.2,18.2,6.2c8.1,0,12.9-2.6,16.2-6.1c4.1-4.4,5.7-10.6,5.7-16.8c0-15-10-21.9-22.7-21.9C40.7,11.5,33.3,21,33.3,33.9
			 M21.9,13.1V0.5L7.7,6.5v6.6H0v10.1h7.5v20.3C7.5,51.7,9.8,56,21.6,56c5,0,7.6-0.4,9.6-0.8v-10c-1.8,0.3-2.5,0.3-3.7,0.3
			c-5.6,0-5.6-2.4-5.7-7.6V23.2h9.5V13.1H21.9z"/>
	</g>
	<g>
		<path class="st0" d="M187.5,109.7h15.6v-18c0-4.6,1.3-11.4,10.9-11.4c1.1,0,1.5,0.1,3.3,0.3V67c-3.6-0.1-11.2-0.3-14.8,9.1
			l-0.3-8.8h-15.3l0.4,9V109.7z M165.5,89.7c0.1,1.8,0.1,5.2-1.2,7.9c-1.6,3.4-4.5,4-6.2,4c-3.8,0-5.8-2.6-5.8-5.7
			C152.4,89.9,158.8,89.8,165.5,89.7 M181,109.7c-0.8-4.2-0.8-5.1-0.8-8.1V81.9c0-4.6-1-8.5-3.7-11.1c-4.4-4.4-12.4-4.9-16.2-4.9
			c-7.6,0-14.1,1.9-17.4,5.3c-3.2,3.3-3.2,6.9-3.3,8.9h15c-0.1-4.8,2.7-6.4,5.6-6.4c4.8,0,5.3,4.2,5.3,8.8c-18-0.8-28.6,3.5-28.6,15
			c0,7.5,4.5,13.2,14.8,13.2c8.6,0,11.9-4,13.8-6.9c0,2.7,0.2,4.6,0.5,6.1H181z M105,109.7h15.6v-18c0-4.6,1.3-11.4,10.9-11.4
			c1.1,0,1.5,0.1,3.3,0.3V67c-3.6-0.1-11.2-0.3-14.8,9.1l-0.3-8.8h-15.3l0.4,9V109.7z M82.1,87c0,3-0.3,12-7.8,12
			c-6.9,0-7.9-7.3-7.9-11.8c0-7.1,2.8-12,8.1-12C82.1,75.2,82.1,84.8,82.1,87 M82.8,67.1v6.4c-2.1-3.4-5.8-7.2-13.9-7.2
			c-12.8,0-18.8,9.5-18.8,21c0,15.4,9.8,21,18.6,21c2.4,0,9.3-0.4,13.5-6.8v5.6c0,4.6-0.5,10.3-8.4,10.3c-4.5,0-6.8-2.2-6.8-5.4
			H52.4c0.1,2.2,0.2,6.2,3.8,9.4c4.8,4.3,12.7,5,17.5,5c8.6,0,13.7-2.1,17.3-4.7c5.7-4,6.7-10,6.7-15.1V67.1H82.8z M29,89.7
			c0.1,1.8,0.1,5.2-1.2,7.9c-1.6,3.4-4.5,4-6.2,4c-3.8,0-5.8-2.6-5.8-5.7C15.9,89.9,22.3,89.8,29,89.7 M44.5,109.7
			c-0.8-4.2-0.8-5.1-0.8-8.1V81.9c0-4.6-1-8.5-3.7-11.1c-4.4-4.4-12.4-4.9-16.2-4.9c-7.6,0-14.1,1.9-17.4,5.3
			c-3.2,3.3-3.2,6.9-3.3,8.9h15c-0.1-4.8,2.7-6.4,5.6-6.4c4.8,0,5.3,4.2,5.3,8.8c-18-0.8-28.6,3.5-28.6,15c0,7.5,4.5,13.2,14.8,13.2
			c8.6,0,11.9-4,13.8-6.9c0,2.7,0.2,4.6,0.5,6.1H44.5z"/>
	</g>
</g>
</svg>
