<?xml version="1.0" encoding="utf-8"?>
<!-- Generator: Adobe Illustrator 29.8.7, SVG Export Plug-In . SVG Version: 9.03 Build 0)  -->
<!DOCTYPE svg PUBLIC "-//W3C//DTD SVG 1.1//EN" "http://www.w3.org/Graphics/SVG/1.1/DTD/svg11.dtd" [
	<!ENTITY st0 "fill:#FFFFFF;">
]>
<svg version="1.1" id="Ebene_1" xmlns="http://www.w3.org/2000/svg" xmlns:xlink="http://www.w3.org/1999/xlink" x="0px" y="0px"
	 viewBox="0 0 283.4642944 61.0546989" style="enable-background:new 0 0 283.4642944 61.0546989;" xml:space="preserve">
<polygon style="&st0;" points="34.4174957,0.8858 31.3075962,30.6278992 31.1942959,30.6278992 27.3500957,0.8858 
	17.7372952,0.8858 13.7225962,30.5713005 13.609396,30.6846008 10.6127958,0.8858 1,0.8858 8.125,43.2924995 19.1508961,43.2924995 
	22.4301949,13.4375 22.543396,13.4375 25.5966949,43.2924995 36.7924957,43.2924995 43.8602943,0.8858 "/>
<g>
	<path style="&st0;" d="M54.3768959,35.0371017c0.1708984,1.8105965,0.9053001,2.7709999,2.7714996,2.7709999
		c1.8656998,0,2.600605-0.9604034,2.7705002-2.7709999V20.9018993c0-2.0361996-0.6786995-3.6752987-2.7705002-3.6752987
		c-2.0923004,0-2.7714996,1.6390991-2.7714996,3.6752987V35.0371017z M45.3871956,21.5800991
		c0-8.1415987,4.8065987-10.8564987,11.7612-10.8564987c7.9165001,0,11.7607994,3.7325001,11.7607994,10.8564987v12.8920994
		c-0.4521942,7.1811028-4.9189987,9.8388023-11.7607994,9.8388023c-6.4463005,0-11.7612-2.6010017-11.7612-9.8388023V21.5800991z"/>
	<path style="&st0;" d="M87.1732941,23.3901005l-0.0566025-0.5654011c-0.169899-1.1879997-0.1128006-2.4321003-0.3394012-3.6190987
		c-0.3955002-1.2998009-1.0741959-1.9790001-2.4305954-1.9790001c-2.3189011,0-2.7148972,1.8099995-2.7148972,3.8456993v13.0610008
		c0,1.9790001,0.5653992,3.6748009,2.8832932,3.6748009c3.3360062,0,2.7710037-4.9756012,2.7710037-7.3506012h8.7074966
		c0,1.8661995-0.2255936,5.8246994-0.7352982,7.5205002c-1.1869965,3.9584999-4.5791016,5.767601-8.4810028,6.1625977
		c-0.8475952,0.0567017-1.6390991,0.1704025-2.9965973,0.1704025c-6.4452972,0-11.1385956-2.6010017-11.1385956-9.8383026
		V21.5800991c0-8.141099,4.1835938-10.855999,11.1385956-10.855999c8.8769989,0.1127996,12.3824005,3.9580002,11.8740997,12.6660004
		H87.1732941z"/>
	<path style="&st0;" d="M108.3207932,14.1167002h0.1132965c2.0918045-2.6587,4.2973022-3.3926001,6.8418045-3.3926001
		c4.3535004,0,7.1805954,3.1093998,7.1805954,7.1816998v25.3866997h-8.9901962V20.7886009
		c0-1.8086014-0.4525986-2.7134018-2.544899-2.7134018c-1.9785004,0-2.6006012,1.7524014-2.6006012,3.3355007v21.8817997h-8.990303
		V0.8858h8.990303V14.1167002z"/>
	<path style="&st0;" d="M140.9471893,22.9941006v-3.1103001c0-1.1309013-0.7357941-3.2227001-3.0536957-3.2227001
		c-2.5453949,0-3.1664886,2.0356998-3.1664886,4.240799v2.0922012H140.9471893z M134.727005,28.9307003v5.5419979
		c0,1.7524033,0.7914886,3.2226028,2.7709961,3.3354034c3.3364868,0.169899,2.9965973-2.8266029,3.1655884-5.4844017h8.9345093
		c0.4501953,8.142601-3.9589996,11.8736-11.7607117,11.9873009c-6.4467926,0.0561981-12.1000977-2.6010017-12.1000977-9.8383026
		V21.5800991c0-8.1415987,5.1455078-10.799799,12.1000977-10.855999c6.2763977-0.0571003,12.0996094,2.3183994,12.0996094,9.1597004
		v9.0468998H134.727005z"/>
	<path style="&st0;" d="M161.5853882,11.6288996v3.9580002h0.1132965c0.847702-2.4310999,3.4473114-4.8627996,6.276413-4.8627996
		c4.2401886,0,8.0282898,2.3183994,8.0282898,6.6152992v25.9531002h-8.9882965V20.6758003
		c-0.1132965-1.4701996-0.6797028-2.7138996-2.3768921-2.6016006c-1.5839996,0.0576-2.4307098,0.9624004-2.4307098,2.6016006
		v22.6166992h-8.9902039V11.6288996H161.5853882z"/>
	<path style="&st0;" d="M194.5492859,23.2763996c0-1.8656998,0-5.1445999-2.5995941-5.1445999
		c-2.4316864,0-2.9403992,2.4878006-2.9403992,5.5405998v7.4633999c0,2.7138023,0.5643921,5.8803024,2.7695007,5.8237
		c2.8847961,0,2.7704926-3.4487,2.7704926-5.4839001V23.2763996z M189.0092926,14.2294998h0.1123047
		c1.4149933-2.7138996,4.1278992-3.5058994,6.7285004-3.5058994c5.9384918,0,7.6903992,5.8813992,7.6903992,10.8564987v10.9702015
		c0,5.3716011-1.2998047,11.5341988-7.8594055,11.7607002c-2.8838043-0.1137009-5.710907-1.6958008-7.1815948-4.6362h-0.1123047
		v3.6176987h-8.3681946V0.8862h8.9902954V14.2294998z"/>
</g>
<rect x="207.5560913" y="0.8858" style="&st0;" width="8.9903002" height="42.4067001"/>
<g>
	<path style="&st0;" d="M235.4887848,27.9130993c-1.8096008,0.9609013-3.3936005,1.4696999-4.5244904,2.3188
		c-1.1289062,0.7911015-2.0926971,1.9224014-2.0926971,4.0713005c0,1.9780998,1.1884003,3.3916016,3.3358917,3.3916016
		c2.6582031,0,3.2245941-2.7700005,3.2812958-4.8050995V27.9130993z M235.8256836,40.466301
		c-2.2587891,2.4873009-4.1826782,3.8446999-7.7441864,3.8446999c-5.0888062,0-8.2568054-3.4491997-8.2568054-8.4818993
		c0-7.1807022,3.9023132-9.4419022,7.8603058-10.7427025c3.9013977-1.3002987,7.8037872-1.6962986,7.8037872-5.0897999
		c0-1.7524986-1.0175934-3.2787991-2.8282013-3.2787991c-3.2792969,0-3.2792969,2.2612-3.4491882,4.9188995h-8.9893036
		c-0.3973999-7.9159994,4.9179993-10.9125996,12.1573029-10.9125996c8.875,0,12.0986023,2.7144003,12.0986023,9.6690006v19.394001
		c0,1.1875,0.3398895,2.3744965,0.7343903,3.5053978h-8.7626953L235.8256836,40.466301z"/>
	<path style="&st0;" d="M246.0043945,18.1317997v-6.5029001h3.5643921V2.582h8.9902954v9.0468998h4.296814v6.5029001h-4.296814
		v16.6792011c0,1.8101006,0.7900085,2.205101,1.9794922,2.205101c1.0166016-0.1684036,1.3554382-0.1123009,2.3173218-0.1123009
		v6.3320007c-1.922821,0.2841988-3.7879944,0.5098-5.7684937,0.5098c-4.8633118,0-7.5186157-2.4883003-7.5186157-7.2933998
		V18.1317997H246.0043945z"/>
	<path style="&st0;" d="M265.4008789,18.1317997v-6.5029001h3.5605164V2.582h8.9921875v9.0468998h4.2969055v6.5029001h-4.2969055
		v16.6792011c0,1.8101006,0.7910156,2.205101,1.9775085,2.205101c1.0195923-0.1684036,1.3594055-0.1123009,2.319397-0.1123009
		v6.3320007c-1.9238892,0.2841988-3.7880859,0.5098-5.7676086,0.5098c-4.8623047,0-7.5214844-2.4883003-7.5214844-7.2933998
		V18.1317997H265.4008789z"/>
</g>
</svg>
