<?xml version="1.0" encoding="UTF-8"?>
<svg xmlns="http://www.w3.org/2000/svg" width="303.2" height="173.3" version="1.1" viewBox="0 0 303.2 173.3">
  <defs>
    <style>
      .cls-1 {
        fill: #fff;
      }
    </style>
  </defs>
  <!-- Generator: Adobe Illustrator 28.7.0, SVG Export Plug-In . SVG Version: 1.2.0 Build 136)  -->
  <g>
    <g id="Ebene_1">
      <path class="cls-1" d="M189.7,70.5l16.4-4.2c-1.9-7.5-5.7-14.4-11.1-19.9l-12.2,11.8c3.4,3.4,5.8,7.7,6.9,12.3Z"/>
      <path class="cls-1" d="M178.3,55.9l10-13.7c-6.2-4.5-13.6-7.4-21.3-8.2l-1.8,16.9c4.7.5,9.3,2.2,13.1,5Z"/>
      <path class="cls-1" d="M160.4,50.9l-1.5-16.9h-.8c-7.4.9-14.6,3.6-20.7,8l9.8,13.8c3.7-2.7,8.1-4.3,12.7-4.8h.5Z"/>
      <path class="cls-1" d="M137.7,108.9l-14.7,8.4c3.8,6.7,9.4,12.3,16,16.2l8.6-14.6c-4.1-2.5-7.5-5.9-9.9-10Z"/>
      <path class="cls-1" d="M152.3,119.7l-6.2,15.8c7.2,2.8,15,3.7,22.7,2.5l-2.5-16.8c-4.8.8-9.6.2-14-1.5Z"/>
      <path class="cls-1" d="M171.2,119.9l6,15.9.7-.3c7-2.8,13.1-7.3,17.8-13.1l-13.2-10.7c-2.9,3.6-6.7,6.3-11,8l-.3.2Z"/>
      <path class="cls-1" d="M223.7,63.5l16.2-5.1c-2-6.4-4.8-12.5-8.3-18.2l-14.5,8.8c2.8,4.6,5,9.5,6.6,14.5Z"/>
      <path class="cls-1" d="M86.4,125.9c3,5.9,6.8,11.5,11.2,16.6l12.8-11.1c-3.5-4-6.5-8.5-8.9-13.2l-15.1,7.7Z"/>
      <path class="cls-1" d="M119.8,31.7l-10.5-13.3c-5.2,4.1-10,8.9-14.1,14.2l13.4,10.4c3.2-4.2,7-8,11.2-11.3Z"/>
      <path class="cls-1" d="M219.2,24.5c-4.8-4.7-10.1-8.8-15.8-12.3l-8.7,14.6c4.6,2.7,8.8,6,12.6,9.8l11.9-12.1Z"/>
      <path class="cls-1" d="M112.4,155.9c5.5,3.9,11.4,7.1,17.6,9.5l6.2-15.8c-4.9-1.9-9.7-4.5-14-7.6l-9.8,13.9Z"/>
      <path class="cls-1" d="M209.2,132.5l12.6,11.4c4.5-5,8.4-10.4,11.6-16.3l-14.9-8.1c-2.6,4.7-5.7,9.1-9.3,13Z"/>
      <path class="cls-1" d="M126.3,7.9l7,15.4c4.8-2.2,9.9-3.8,15.2-4.8l-3.1-16.7c-6.6,1.3-13,3.3-19.1,6.1Z"/>
      <path class="cls-1" d="M183,150.2l5.8,15.9c6.3-2.3,12.3-5.4,17.8-9.1l-9.5-14.1c-4.3,3-9.1,5.5-14.1,7.3Z"/>
      <path class="cls-1" d="M159.5,154.2c-2.6,0-5.3-.2-7.9-.6l-2.2,16.8c1.6.2,3.1.4,4.7.5,1.7.1,3.5.2,5.2.2,3.4,0,6.8-.1,10.1-.5l-1.8-16.9c-2.7.4-5.4.5-8.1.5Z"/>
      <path class="cls-1" d="M164.4,17.5c5.3.3,10.6,1.2,15.7,2.8l5-16.2c-6.4-2-13-3.1-19.7-3.5l-1,16.9Z"/>
      <g>
        <path class="cls-1" d="M3.7,55.1h10c1.5,0,2.8.2,3.9.6,1.1.4,2,1,2.7,1.8s1.3,1.6,1.6,2.7c.4,1,.5,2.2.5,3.4s-.2,2.4-.6,3.4-1,1.9-1.7,2.6c-.8.7-1.6,1.3-2.7,1.6-1,.4-2.2.6-3.4.6h-5.6v8.5H3.7v-25.2ZM8.4,67.8h4.7c1.5,0,2.6-.4,3.3-1.2.7-.8,1.1-1.8,1.1-3.1s-.1-1.6-.3-2.2c-.2-.6-.5-1-.9-1.4s-.9-.6-1.4-.7-1.3-.2-2-.2h-4.5v8.8Z"/>
        <path class="cls-1" d="M37.2,54.4c1.9,0,3.6.4,5,1.1s2.7,1.7,3.8,2.9c1,1.2,1.8,2.6,2.4,4.2.6,1.6.8,3.3.8,5s-.3,3.4-.8,5c-.6,1.6-1.3,3-2.4,4.2-1,1.2-2.3,2.2-3.8,2.9s-3.2,1.1-5,1.1-3.6-.4-5-1.1-2.7-1.7-3.8-2.9c-1-1.2-1.8-2.6-2.4-4.2s-.8-3.3-.8-5,.3-3.4.8-5c.6-1.6,1.3-3,2.4-4.2,1-1.2,2.3-2.2,3.8-2.9s3.1-1.1,5-1.1ZM37.2,58.8c-1.2,0-2.3.3-3.2.8s-1.6,1.2-2.2,2c-.6.8-1,1.8-1.3,2.8-.3,1.1-.4,2.1-.4,3.2s.1,2.2.4,3.2.7,2,1.3,2.8,1.3,1.5,2.2,2,2,.8,3.2.8,2.3-.3,3.2-.8,1.6-1.2,2.2-2c.6-.8,1-1.8,1.3-2.8s.4-2.1.4-3.2,0-2.2-.4-3.2c-.3-1.1-.7-2-1.3-2.8s-1.3-1.5-2.2-2c-.9-.6-1.9-.8-3.2-.8Z"/>
        <path class="cls-1" d="M53.8,55.1h4.7v20.7h10.2v4.4h-14.9v-25.1Z"/>
        <path class="cls-1" d="M72.6,55.1h4.7v25.1h-4.7v-25.1Z"/>
        <path class="cls-1" d="M87.9,59.4h-6.9v-4.4h18.5v4.4h-6.9v20.7h-4.7v-20.7Z"/>
        <path class="cls-1" d="M103.1,55.1h4.7v25.1h-4.7v-25.1Z"/>
        <path class="cls-1" d="M113.6,55.1h4.7v11.3l10-11.3h5.6l-8.2,9.5,8.8,15.6h-5.5l-6.6-11.8-4,4.6v7.2h-4.7v-25.1h-.1Z"/>
      </g>
      <g>
        <path class="cls-1" d="M147.9,68.5h17.7c2.2,0,4.1.2,5.6.7s2.7,1.1,3.8,2.1c1.1.9,1.9,2,2.5,3.3s.9,2.6.9,4c0,2.9-1.1,5.3-3.3,7.2s-5.2,2.9-9.1,2.9h-5.7v6.3c0,.8.1,1.3.2,1.5.1.3.4.5.7.7.3,0,.8.2,1.5.2h1.7v4.6h-16.3v-4.6h1.1c1,0,1.7,0,2-.2s.6-.4.7-.7c.1-.3.2-1,.2-1.9v-18.5c0-1-.1-1.7-.2-2-.1-.3-.3-.6-.6-.7s-.8-.2-1.6-.2h-1.6v-4.7s-.2,0-.2,0ZM160.2,74v9.5h2.9c1.7,0,3-.2,3.8-.5.8-.4,1.5-.9,2-1.7s.7-1.6.7-2.6c0-1.5-.6-2.7-1.8-3.6-.9-.7-2.2-1-3.9-1h-3.7Z"/>
        <path class="cls-1" d="M190.8,77.5v3.5c1.3-1.3,2.4-2.3,3.3-2.7s1.8-.7,2.7-.7,1.5.2,2.1.5,1.1.9,1.5,1.5c.4.7.5,1.4.5,2.2s-.3,1.9-1,2.7c-.7.8-1.6,1.2-2.8,1.2s-.6,0-.9,0-.8-.2-1.6-.5c-.4,0-.8-.2-1-.2-.4,0-1.1.3-2.1.8v9.4c0,.8.1,1.3.2,1.6.1.2.3.4.6.5s.9.2,1.8.2h1.1v4.6h-14.8v-4.6h1.2c.9,0,1.4,0,1.7,0,.2,0,.4-.3.5-.5s.2-.8.2-1.6v-11h-3.5v-4.6c2.6-.2,5.3-.8,8.1-2h2.2Z"/>
        <path class="cls-1" d="M217.3,87.5v-1.8c0-1.1-.1-1.8-.3-2.2-.2-.4-.5-.7-1-1s-1-.4-1.7-.4-1,0-1.4.3c-.4.2-.8.4-1,.7-.3.3-.6.8-.9,1.6-.4,1-.9,1.7-1.5,2.1s-1.3.6-2.1.6-1.9-.3-2.5-1c-.7-.6-1-1.4-1-2.4s.3-2,1-2.9c.9-1.1,2.2-2,4-2.7s3.8-1.1,6-1.1,4.1.4,5.7,1.1c1.6.7,2.6,1.6,3.3,2.6.6,1,.9,2.5.9,4.6v8.6c0,1.1.1,1.7.2,2,.1.3.4.6.7.8.4.2.8.3,1.2.3s1,0,1.8-.4v4.7c-1.4.4-2.7.6-3.9.6s-2.7-.2-3.8-.7c-1-.5-1.9-1.2-2.6-2.2-1.6,1-3,1.8-4.3,2.2-1.3.4-2.6.7-3.8.7-2.3,0-4.1-.6-5.5-1.9s-2.1-2.9-2.1-4.8.2-2.1.7-2.9c.5-.9,1.2-1.7,2.2-2.3,1-.7,2.5-1.3,4.5-1.8,1.8-.5,4.3-.8,7.2-1ZM217.3,91.4c-2.1.3-3.6.6-4.4.9s-1.5.7-1.8,1.2c-.4.5-.6,1-.6,1.4,0,.6.2,1.2.7,1.6s1.1.6,1.9.6,1.1,0,1.8-.4,1.5-.7,2.3-1.2v-4.1h.1Z"/>
        <path class="cls-1" d="M230.5,78h14.5v4.6c-.8,0-1.3,0-1.5.2s-.3.3-.3.6.2.7.6,1.3l2.1,2.9,2.1-2.9c.4-.6.7-1,.7-1.3s-.1-.4-.3-.6-.8-.2-1.7-.2v-4.6h11.1v4.6c-1,0-1.7,0-2.1.3s-1,.6-1.5,1.3l-4.7,5.4,5.1,5.5c.9.9,1.6,1.5,2.1,1.8s1.3.4,2.3.4v4.6h-15.3v-4.6h.9c.7,0,1.1,0,1.3-.2s.3-.3.3-.5-.2-.6-.7-1.2l-3.2-4.1-2.9,3.9c-.6.8-.9,1.3-.9,1.5s.1.4.3.5.6.2,1.2.2h1v4.6h-11.8v-4.6c.7,0,1.3,0,1.7,0s.8-.3,1.1-.5.7-.7,1.3-1.3l5.4-6.2-4.5-5c-.6-.6-1.1-1-1.6-1.2s-1.2-.3-2.1-.3v-4.8Z"/>
        <path class="cls-1" d="M271.9,77.5v17.7c0,.8,0,1.4.1,1.6s.3.3.5.4.8.2,1.7.2h1.3v4.6h-14.8v-4.6h1.3c.8,0,1.4,0,1.6,0s.4-.2.5-.4c.1-.2.2-.6.2-1.2v-11.6h-3.5v-4.5c1.3,0,2.5-.2,3.6-.4,1.2-.2,2.2-.5,3.1-.7.6-.2,1.3-.5,2.2-1h2.2ZM268,66.8c1.2,0,2.2.4,3.1,1.3s1.3,1.9,1.3,3.1-.4,2.3-1.3,3.1c-.9.9-1.9,1.3-3.1,1.3s-2.2-.4-3.1-1.3-1.3-1.9-1.3-3.1.4-2.2,1.3-3.1c.9-.9,2-1.3,3.1-1.3Z"/>
        <path class="cls-1" d="M294.6,78h3.1l1.9,6.7-4.5,1.8c-.9-1.4-1.9-2.5-3.2-3.3-1.3-.8-2.6-1.2-3.9-1.2s-1.5,0-1.9.4-.6.6-.6,1,.1.6.4.9.9.6,1.8.9l6.6,2.3c1.2.4,2.3.9,3.4,1.6,1.1.6,1.9,1.4,2.4,2.3s.8,2,.8,3.2c0,2.2-.8,4-2.5,5.3-1.9,1.6-4.4,2.4-7.3,2.4s-4.7-.6-6.5-1.9l-.7,1.3h-3.2l-2.9-7.9,4.5-1.9c1.1,1.8,2.5,3.2,4.2,4.2s3.2,1.5,4.6,1.5,1.6-.2,2.2-.6c.4-.3.7-.7.7-1.1s-.2-.7-.5-1.1c-.4-.3-1.1-.7-2.3-1.1l-5.2-1.8c-2.9-1-4.8-2.1-5.8-3.2s-1.5-2.5-1.5-4.1.8-3.7,2.4-5.1c1.8-1.6,4.1-2.3,6.8-2.3s4.4.5,6.2,1.6l.5-.8Z"/>
      </g>
      <path class="cls-1" d="M136.2,85.7h-45.3v17.9h45.3l5.9-9-5.9-8.9ZM100.3,93.1h-1.6l-1.2,5.6q0,0,0,.2v.2c0,.2,0,.3,0,.3,0,0,.2,0,.4,0,.3,0,.6,0,1-.2l-.3,1.3c-.3,0-.5,0-.8,0h-1.3c-.2,0-.3,0-.4,0,0,0-.2,0-.3-.3,0,0,0-.3,0-.5v-.4c0,0,0-.3,0-.4l1.3-6h-1.5l.3-1.3h1.5l.6-2.8h1.5l-.6,2.8h1.6l-.2,1.4ZM108.3,93.4h-1c-.3,0-.6,0-.9.2s-.6.3-.8.5c-.2.2-.4.5-.6.8s-.3.6-.3.9l-1.1,4.9h-1.6l1.9-8.8h1.5l-.3,1.5c.5-.6,1-1,1.5-1.3.5-.2,1.2-.4,1.9-.4l-.2,1.7ZM111.5,100.7h-1.5l1.9-8.8h1.5l-1.9,8.8ZM113.9,89.3h-1.5l.4-1.7h1.5l-.4,1.7ZM122,88.8c0,0-.3,0-.4,0h-.4c-.4,0-.7,0-.9.3s-.4.5-.4.9c0,.3,0,.6-.2,1,0,.3,0,.6-.2,1h1.6l-.3,1.3h-1.6l-1.6,7.5h-1.5l1.6-7.5h-1.5l.3-1.3h1.5c0-.5.2-1.1.3-1.6,0-.5.3-1,.5-1.4s.5-.7.9-1c.4-.2.9-.4,1.6-.4h.5c.2,0,.3,0,.5,0l-.3,1.2ZM128.7,88.8c-.1,0-.3,0-.4,0h-.4c-.4,0-.7,0-.9.3s-.4.5-.4.9c0,.3,0,.6-.2,1,0,.3,0,.6-.2,1h1.6l-.3,1.3h-1.6l-1.6,7.5h-1.5l1.6-7.5h-1.5l.3-1.3h1.5c0-.5.2-1.1.3-1.6,0-.5.3-1,.5-1.4s.5-.7.9-1c.4-.2.9-.4,1.6-.4h.5c.2,0,.3,0,.5,0l-.3,1.2ZM134.5,93.1h-1.6l-1.2,5.6q0,0-.1.2v.2c0,.2,0,.3.1.3.1,0,.2,0,.4,0,.3,0,.6,0,1-.2l-.3,1.3c-.3,0-.5,0-.8,0h-1.3c-.2,0-.3,0-.4,0-.1,0-.2,0-.3-.3-.1,0-.1-.3-.1-.5v-.4c0,0,.1-.3.1-.4l1.3-6h-1.5l.3-1.3h1.5l.6-2.8h1.5l-.6,2.8h1.6l-.2,1.4Z"/>
    </g>
  </g>
</svg>