<?xml version="1.0" encoding="utf-8"?>
<!-- Generator: Adobe Illustrator 29.8.1, SVG Export Plug-In . SVG Version: 9.03 Build 0)  -->
<!DOCTYPE svg PUBLIC "-//W3C//DTD SVG 1.1//EN" "http://www.w3.org/Graphics/SVG/1.1/DTD/svg11.dtd" [
	<!ENTITY st0 "fill:#E30613;">
]>
<svg version="1.1" id="Ebene_1" xmlns="http://www.w3.org/2000/svg" xmlns:xlink="http://www.w3.org/1999/xlink" x="0px" y="0px"
	 viewBox="0 0 283.4599915 125.8500977" style="enable-background:new 0 0 283.4599915 125.8500977;" xml:space="preserve">
<path style="&st0;" d="M41.0093002,24.7563992c-7.153801,0-13.9106998,2.4390011-18.9458008,6.6733017l-4.2377987-5.9043007
	L1,26.4239006v97.421402h24.1107998V111.394104l-0.2626991-10.3955002l0.3955994-0.1298981
	c4.3735008,3.592804,9.539999,4.7519989,15.3676014,4.7519989c17.6196976,0,28.8813972-13.6054993,28.8813972-40.5596008
	C69.4926987,34.6421013,59.2929993,24.7563992,41.0093002,24.7563992 M34.1211014,86.6225967
	c-4.2407017,0-7.1558018-2.1825943-9.0103016-5.2616959V49.7846985c1.8544998-2.9506989,5.2989006-5.0048981,9.2720013-5.0048981
	c7.5536995,0,10.203598,3.5937996,10.203598,19.7657013C44.5863991,83.2856979,40.6113014,86.6225967,34.1211014,86.6225967"/>
<path style="&st0;" d="M164.5448914,23.8803997c-24.3710938,0-35.6342926,11.5532017-35.6342926,41.0702972
	c0,29.6513977,11.1284943,40.6904984,35.5054016,40.6904984c24.5116882,0,35.3721008-11.0391006,35.3721008-40.6904984
	C199.7881012,35.4336014,189.0565948,23.8803997,164.5448914,23.8803997 M164.5448914,87.0289001
	c-7.8105011,0-10.7265015-3.5917969-10.7265015-22.0782013c0-18.4804001,2.7832031-22.0741997,10.7265015-22.0741997
	c7.6875,0,10.4697113,3.5937996,10.4697113,22.0741997C175.0146027,83.1772995,172.2323914,87.0289001,164.5448914,87.0289001"/>
<path style="&st0;" d="M268.1063843,1.0103c-8.875,0-13.1161957,3.3368998-13.1161957,9.4984999
	c0,6.6524,4.0694122,9.3692007,12.5498199,9.4872999c8.7011719-0.1201,13.6835938-3.3153992,13.6835938-9.4872999
	C281.2236023,4.3471999,277.1161804,1.0103,268.1063843,1.0103"/>
<path style="&st0;" d="M98.9247971,36.4361h-0.3983994L96.671402,25.6562996l-19.3408051,0.8964996v77.9136047h24.1108017
	V64.2895966c0-10.9110947,6.0937958-16.8163948,15.2358017-16.8163948c3.0458984,0,6.0938034,0.3862,8.4776001,1.1576996
	l1.4584961-22.8467007c-1.9878006-0.6421013-5.033699-1.1557007-8.4814987-1.1557007
	C110.4501953,24.6285,103.692894,28.2203007,98.9247971,36.4361"/>
<polygon style="&st0;" points="255.5214996,104.4634018 280.1591797,104.4634018 280.1591797,25.4389992 255.5312958,26.5356998 "/>
<path style="&st0;" d="M211.1151886,22.4463005v3.4648991h-8.3465881v17.0688h8.3465881v61.4834023h24.1123047V42.9799995
	h13.1376953l0.0284119-17.0688h-13.1661072v-2.6952991c0-3.3374004,1.8536072-5.2637005,7.6865997-5.2637005
	c1.9842987,0,3.8379059,0.2572994,5.5585938,0.6410999L249.1395874,3.1919
	C246.3554993,2.4209001,242.1171875,1.9107,237.6112976,1.9107C219.4608917,1.9107,211.1151886,11.2784004,211.1151886,22.4463005"
	/>
</svg>
